<mxfile host="app.diagrams.net" modified="2020-11-17T14:12:41.043Z" agent="5.0 (Windows NT 10.0; Win64; x64) AppleWebKit/537.36 (KHTML, like Gecko) Chrome/86.0.4240.198 Safari/537.36" etag="-OdZjFoqiHBlO5Nqthhf" version="13.9.9" type="github">
  <diagram id="0l9iCU2n51F14So56S5U" name="Page-1">
    <mxGraphModel dx="1662" dy="705" grid="1" gridSize="10" guides="1" tooltips="1" connect="1" arrows="1" fold="1" page="1" pageScale="1" pageWidth="827" pageHeight="1169" math="0" shadow="0">
      <root>
        <mxCell id="0" />
        <mxCell id="1" parent="0" />
        <mxCell id="TAeenijPzfRU9d3aUyMh-1" value="Azure DevOps" style="ellipse;whiteSpace=wrap;html=1;aspect=fixed;" vertex="1" parent="1">
          <mxGeometry x="350" y="130" width="80" height="80" as="geometry" />
        </mxCell>
        <mxCell id="TAeenijPzfRU9d3aUyMh-2" value="VSTS" style="rounded=1;whiteSpace=wrap;html=1;" vertex="1" parent="1">
          <mxGeometry x="70" y="170" width="120" height="60" as="geometry" />
        </mxCell>
        <mxCell id="TAeenijPzfRU9d3aUyMh-3" value="TFS - versão On Premises" style="rounded=1;whiteSpace=wrap;html=1;" vertex="1" parent="1">
          <mxGeometry x="70" y="100" width="120" height="60" as="geometry" />
        </mxCell>
        <mxCell id="TAeenijPzfRU9d3aUyMh-6" value="" style="shape=curlyBracket;whiteSpace=wrap;html=1;rounded=1;rotation=-180;size=0.5;" vertex="1" parent="1">
          <mxGeometry x="200" y="90" width="20" height="160" as="geometry" />
        </mxCell>
        <mxCell id="TAeenijPzfRU9d3aUyMh-7" value="" style="endArrow=classic;html=1;entryX=0.1;entryY=0.5;entryDx=0;entryDy=0;entryPerimeter=0;exitX=0;exitY=0.5;exitDx=0;exitDy=0;" edge="1" parent="1" source="TAeenijPzfRU9d3aUyMh-1">
          <mxGeometry relative="1" as="geometry">
            <mxPoint x="350" y="180" as="sourcePoint" />
            <mxPoint x="218" y="170" as="targetPoint" />
            <Array as="points">
              <mxPoint x="290" y="170" />
            </Array>
          </mxGeometry>
        </mxCell>
        <mxCell id="TAeenijPzfRU9d3aUyMh-8" value="Antigo" style="edgeLabel;resizable=0;html=1;align=center;verticalAlign=middle;" connectable="0" vertex="1" parent="TAeenijPzfRU9d3aUyMh-7">
          <mxGeometry relative="1" as="geometry" />
        </mxCell>
        <mxCell id="TAeenijPzfRU9d3aUyMh-11" value="TFVC (repositório)" style="rounded=1;whiteSpace=wrap;html=1;" vertex="1" parent="1">
          <mxGeometry x="70" y="260" width="120" height="60" as="geometry" />
        </mxCell>
      </root>
    </mxGraphModel>
  </diagram>
</mxfile>
